# Blender v2.66 (sub 0) OBJ File: ''
# www.blender.org
o CityRuins_.004
v 2.474340 2.922782 -3.640949
v 3.486060 1.026402 -1.686820
v 3.472880 1.086792 -1.693590
v 3.473740 1.018821 -1.694240
v 3.486060 1.093492 -1.686100
v 3.480270 1.196352 -1.654330
v 3.480270 1.196352 -1.579290
v 3.471670 1.018732 -1.596210
v 3.486060 1.026381 -1.588250
v 3.480370 1.164271 -1.654610
v 3.480370 1.164271 -1.703950
v 3.486060 1.093492 -1.722900
v 3.473180 1.126892 -1.731009
v 3.473660 1.086822 -1.730350
v 3.486060 1.119612 -1.723520
v 3.486060 1.119612 -1.694960
v 3.472570 1.126871 -1.702470
v 3.486060 1.159562 -1.696490
v 3.486060 1.159562 -1.647140
v 3.486060 1.192062 -1.646850
v 3.486060 1.191912 -1.571730
v 3.486060 1.192062 -1.646850
v 3.545720 1.189582 -1.550099
v 3.486060 1.191912 -1.571730
v 3.545720 1.190522 -1.634130
v 3.486060 1.159562 -1.696490
v 3.545710 1.157822 -1.638390
v 3.486060 1.159562 -1.647140
v 3.545710 1.159562 -1.691760
v 3.486060 1.119612 -1.723520
v 3.545710 1.119612 -1.690160
v 3.486060 1.119612 -1.694960
v 3.545720 1.119612 -1.718780
v 3.486060 1.093492 -1.722900
v 3.545720 1.093342 -1.679349
v 3.545710 1.093492 -1.718130
v 3.486060 1.093492 -1.686100
v 3.486060 1.026402 -1.686820
v 3.545720 1.023842 -1.562260
v 3.545720 1.026252 -1.676700
v 3.486060 1.026381 -1.588250
v 3.572090 1.192082 -1.637470
v 3.572090 1.190882 -1.550439
v 3.572090 1.161461 -1.696680
v 3.572090 1.159392 -1.642120
v 3.572090 1.122572 -1.723710
v 3.572090 1.122572 -1.695070
v 3.572090 1.090802 -1.723070
v 3.572090 1.090562 -1.683599
v 3.572090 1.023162 -1.680869
v 3.572090 1.020162 -1.561880
v 3.663700 1.085281 -1.693530
v 3.658110 1.022341 -1.686820
v 3.662960 1.015712 -1.694190
v 3.658110 1.091661 -1.686100
v 3.665690 1.196292 -1.654420
v 3.667280 1.196232 -1.579450
v 3.664920 1.004982 -1.596150
v 3.658110 1.012702 -1.588240
v 3.665350 1.164192 -1.654690
v 3.664310 1.164251 -1.703979
v 3.663350 1.126942 -1.730950
v 3.658110 1.093492 -1.722900
v 3.662940 1.086862 -1.730289
v 3.658110 1.119612 -1.723520
v 3.658110 1.119422 -1.694960
v 3.663950 1.126922 -1.702420
v 3.658110 1.159562 -1.696490
v 3.658110 1.159282 -1.647150
v 3.658110 1.192062 -1.646850
v 3.658110 1.191912 -1.571730
v 3.598460 1.189582 -1.550099
v 3.658110 1.192062 -1.646850
v 3.658110 1.191912 -1.571730
v 3.598460 1.190522 -1.634130
v 3.598460 1.157622 -1.638390
v 3.658110 1.159562 -1.696490
v 3.658110 1.159282 -1.647150
v 3.598460 1.159562 -1.691760
v 3.598460 1.119612 -1.690160
v 3.658110 1.119612 -1.723520
v 3.658110 1.119422 -1.694960
v 3.598460 1.119612 -1.718780
v 3.598460 1.093011 -1.679349
v 3.658110 1.093492 -1.722900
v 3.598460 1.093492 -1.718130
v 3.658110 1.091661 -1.686100
v 3.598460 1.021162 -1.562260
v 3.658110 1.022341 -1.686820
v 3.598460 1.025681 -1.676700
v 3.658110 1.012702 -1.588240
v 2.474340 2.922782 -3.778309
v 2.467260 2.922332 -3.778309
v 2.467260 2.922332 -3.640949
vt 0.951741 0.987106
vt 0.990166 0.985133
vt 0.986682 0.987106
vt 0.955225 0.985133
vt 0.928637 0.972336
vt 0.955087 0.970167
vt 0.951611 0.972336
vt 0.932113 0.970167
vt 0.916056 0.955141
vt 0.932825 0.951774
vt 0.929358 0.955141
vt 0.919524 0.951774
vt 0.916358 0.936679
vt 0.936949 0.939744
vt 0.919816 0.939744
vt 0.933492 0.936679
vt 0.933174 0.905370
vt 0.982290 0.908851
vt 0.936616 0.908852
vt 0.978848 0.905370
vt 0.983406 0.871952
vt 0.941498 0.838053
vt 0.983406 0.838053
vt 0.941498 0.871952
vt 0.983342 0.897035
vt 0.941434 0.874746
vt 0.983342 0.874746
vt 0.941434 0.897035
vt 0.984485 0.993740
vt 0.942577 0.980835
vt 0.984485 0.980835
vt 0.942577 0.993740
vt 0.900732 0.960764
vt 0.942641 0.944142
vt 0.942641 0.960764
vt 0.900733 0.944142
vt 0.899238 0.833779
vt 0.941146 0.781931
vt 0.941146 0.833779
vt 0.899238 0.781931
vt 0.959613 0.871952
vt 0.959613 0.838053
vt 0.959549 0.897035
vt 0.959549 0.874746
vt 0.960692 0.993740
vt 0.960692 0.980835
vt 0.924526 0.960764
vt 0.924526 0.944142
vt 0.923031 0.833779
vt 0.923032 0.781931
vt 0.526320 0.837970
vt 0.990411 0.837757
vn -0.608514 -0.793543 0.000000
vn -0.593985 -0.804475 -0.001606
vn -0.637657 -0.770321 0.000000
vn -0.637657 -0.770320 -0.000000
vn -0.469265 -0.882993 -0.010655
vn -0.492061 -0.870561 -0.000000
vn -0.473714 0.880679 0.000000
vn -0.449154 0.893411 -0.008802
vn -0.524089 0.851663 0.000173
vn -0.465486 0.885009 -0.009017
vn -0.038304 -0.999264 -0.001995
vn -0.023419 -0.999663 -0.011184
vn -0.029158 -0.999575 0.000000
vn 0.002584 -0.999466 -0.032585
vn 0.000000 -1.000000 -0.000000
vn -0.000309 0.999992 0.003867
vn 0.002514 0.999997 0.000000
vn -0.001058 0.999778 0.021054
vn 0.042446 0.999099 0.000203
vn 0.057640 -0.998275 -0.011168
vn 0.049060 -0.998701 -0.013770
vn 0.065764 -0.997305 -0.032514
vn 0.054031 -0.997821 -0.037856
vn 0.111553 -0.993758 0.000039
vn 0.111504 -0.993764 0.000000
vn 0.102150 0.994762 0.003820
vn 0.105806 0.994368 0.006048
vn 0.119616 0.992600 0.020903
vn 0.137815 0.990143 0.024963
vn 0.419525 -0.907693 -0.009624
vn 0.485987 -0.873965 -0.001745
vn 0.552175 -0.833632 -0.012663
vn 0.599793 -0.800143 -0.004539
vn 0.780708 -0.624668 -0.016860
vn 0.811647 -0.584136 -0.003886
vn 0.822661 0.567830 0.028239
vn 0.759143 0.650808 0.012283
vn 0.833468 0.549944 0.053778
vn 0.775353 0.629268 0.053371
vn 0.038310 -0.999264 -0.001995
vn 0.023423 -0.999663 -0.011184
vn 0.026987 -0.999620 -0.005671
vn -0.002881 -0.999336 -0.036326
vn -0.003721 -0.999971 -0.006653
vn 0.000990 0.999923 0.012378
vn 0.028214 0.998368 0.049650
vn 0.062523 0.997266 0.039388
vn 0.180528 0.978901 0.095725
vn -0.057640 -0.998275 -0.011168
vn -0.049060 -0.998701 -0.013770
vn -0.065086 -0.997221 -0.036249
vn -0.061594 -0.997384 -0.037840
vn -0.111547 -0.993759 0.000000
vn -0.103756 0.994527 0.012311
vn -0.093476 0.995603 0.006056
vn -0.101205 0.994090 0.039263
vn -0.037517 0.998978 0.025186
vn 0.063449 -0.997985 0.000000
s off
f 6/1/1 21/2/1 7/3/1
f 6/1/2 20/4/2 21/2/2
f 11/5/3 19/6/3 10/7/3
f 11/5/4 18/8/4 19/6/4
f 13/9/5 16/10/5 17/11/5
f 13/9/6 15/12/6 16/10/6
f 14/13/7 5/14/7 12/15/7
f 14/13/8 3/16/8 5/14/8
f 4/17/9 9/18/9 2/19/9
f 4/17/10 8/20/10 9/18/10
f 22/21/11 23/22/11 24/23/11
f 22/21/12 25/24/12 23/22/12
f 26/25/13 27/26/13 28/27/13
f 26/25/14 29/28/14 27/26/14
f 30/29/15 31/30/15 32/31/15
f 30/29/15 33/32/15 31/30/15
f 34/33/16 35/34/16 36/35/16
f 34/33/17 37/36/17 35/34/17
f 38/37/18 39/38/18 40/39/18
f 38/37/19 41/40/19 39/38/19
f 42/41/20 23/22/20 25/24/20
f 42/41/21 43/42/21 23/22/21
f 44/43/22 27/26/22 29/28/22
f 44/43/23 45/44/23 27/26/23
f 46/45/24 31/30/24 33/32/24
f 46/45/25 47/46/25 31/30/25
f 35/34/26 48/47/26 36/35/26
f 35/34/27 49/48/27 48/47/27
f 39/38/28 50/49/28 40/39/28
f 39/38/29 51/50/29 50/49/29
f 71/2/30 56/1/30 57/3/30
f 71/2/31 70/4/31 56/1/31
f 69/6/32 61/5/32 60/7/32
f 69/6/33 68/8/33 61/5/33
f 66/10/34 62/9/34 67/11/34
f 66/10/35 65/12/35 62/9/35
f 55/14/36 64/13/36 63/15/36
f 55/14/37 52/16/37 64/13/37
f 59/18/38 54/17/38 53/19/38
f 59/18/39 58/20/39 54/17/39
f 72/22/40 73/21/40 74/23/40
f 72/22/41 75/24/41 73/21/41
f 76/26/42 77/25/42 78/27/42
f 76/26/43 79/28/43 77/25/43
f 80/30/44 81/29/44 82/31/44
f 80/30/15 83/32/15 81/29/15
f 84/34/45 85/33/45 86/35/45
f 84/34/46 87/36/46 85/33/46
f 88/38/47 89/37/47 90/39/47
f 88/38/48 91/40/48 89/37/48
f 72/22/49 42/41/49 75/24/49
f 72/22/50 43/42/50 42/41/50
f 76/26/51 44/43/51 79/28/51
f 76/26/52 45/44/52 44/43/52
f 80/30/53 46/45/53 83/32/53
f 80/30/53 47/46/53 46/45/53
f 48/47/54 84/34/54 86/35/54
f 48/47/55 49/48/55 84/34/55
f 50/49/56 88/38/56 90/39/56
f 50/49/57 51/50/57 88/38/57
f 1/51/58 93/52/58 92/52/58
f 1/51/58 94/51/58 93/52/58
