# Blender v2.66 (sub 0) OBJ File: ''
# www.blender.org
o CityRuins1
v 1.159672 0.063292 -2.845200
v 1.496677 0.400297 -2.845200
v 1.159672 0.400297 -2.845200
v 1.496677 0.063292 -2.845200
v 1.237514 0.063292 -2.983720
v 1.406016 0.400297 -2.691870
v 1.237514 0.400297 -2.983720
v 1.406016 0.063292 -2.691870
v 1.688098 0.063292 -2.786410
v 1.964155 0.400297 -2.593110
v 1.688098 0.400297 -2.786410
v 1.964155 0.063292 -2.593110
v 1.834403 0.063292 -2.850210
v 1.805031 0.400297 -2.514490
v 1.834403 0.400297 -2.850210
v 1.805031 0.063292 -2.514490
v 1.989117 0.079652 -2.660550
v 2.231780 0.326063 -2.617760
v 1.989117 0.326063 -2.660550
v 2.231780 0.079652 -2.617760
v 2.061903 0.079652 -2.747530
v 2.146180 0.326063 -2.515980
v 2.061903 0.326063 -2.747530
v 2.146180 0.079652 -2.515980
v 1.731544 0.079652 -2.490730
v 1.974211 0.326063 -2.447949
v 1.731544 0.326063 -2.490730
v 1.974211 0.079652 -2.447949
v 1.804329 0.079652 -2.577710
v 1.888607 0.326063 -2.346160
v 1.804329 0.326063 -2.577710
v 1.888607 0.079652 -2.346160
v 1.448387 0.064422 -1.358420
v 1.691054 0.310833 -1.315640
v 1.448387 0.310833 -1.358430
v 1.691054 0.064422 -1.315640
v 1.521172 0.064422 -1.445400
v 1.605450 0.310833 -1.213850
v 1.521172 0.310833 -1.445400
v 1.605450 0.064422 -1.213850
v 1.820460 0.064422 -1.518780
v 2.009222 0.310833 -1.677170
v 1.820460 0.310833 -1.518780
v 2.009222 0.064422 -1.677170
v 1.792656 0.064422 -1.632710
v 2.024207 0.310833 -1.548430
v 1.792656 0.310833 -1.632710
v 2.024207 0.064422 -1.548430
v 1.822925 0.064422 -1.533840
v 1.844401 0.310833 -1.779320
v 1.822925 0.310833 -1.533840
v 1.844401 0.064422 -1.779320
v 1.715592 0.064422 -1.597110
v 1.938916 0.310833 -1.701250
v 1.715592 0.310833 -1.597110
v 1.938916 0.064422 -1.701250
v 2.085565 0.064421 0.051308
v 2.274330 0.310832 -0.107082
v 2.085565 0.310832 0.051308
v 2.274330 0.064421 -0.107082
v 2.057761 0.064421 -0.062622
v 2.289310 0.310832 0.021655
v 2.057761 0.310832 -0.062622
v 2.289310 0.064421 0.021655
v 2.088030 0.064421 0.036240
v 2.109510 0.310832 -0.209234
v 2.088030 0.310832 0.036240
v 2.109510 0.064421 -0.209234
v 1.980696 0.064421 -0.027024
v 2.204020 0.310832 -0.131162
v 1.980696 0.310832 -0.027024
v 2.204020 0.064421 -0.131162
v 0.977934 0.104074 -0.004414
v 1.166695 0.350484 -0.162805
v 0.977934 0.350484 -0.004415
v 1.166695 0.104074 -0.162805
v 0.950130 0.104074 -0.118345
v 1.181681 0.350484 -0.034067
v 0.950130 0.350484 -0.118345
v 1.181680 0.104074 -0.034067
v 0.980398 0.104074 -0.019483
v 1.001874 0.350484 -0.264956
v 0.980398 0.350484 -0.019483
v 1.001874 0.104074 -0.264957
v 0.873065 0.104074 -0.082747
v 1.096390 0.350484 -0.186885
v 0.873065 0.350484 -0.082747
v 1.096389 0.104074 -0.186885
v 0.673154 0.141117 -0.259761
v 0.708136 0.542489 -0.659606
v 0.673154 0.542489 -0.259761
v 0.708136 0.141117 -0.659607
v 0.526252 0.141117 -0.344575
v 0.855037 0.542489 -0.574793
v 0.526252 0.542489 -0.344574
v 0.855038 0.141117 -0.574793
v 0.536910 0.141117 -0.588682
v 0.844380 0.542489 -0.330685
v 0.536910 0.542489 -0.588682
v 0.844380 0.141117 -0.330684
v 1.563799 0.026337 1.228420
v 1.598780 0.427710 0.828579
v 1.563798 0.427710 1.228420
v 1.598780 0.026337 0.828578
v 1.416897 0.026337 1.143610
v 1.745682 0.427710 0.913390
v 1.416896 0.427710 1.143610
v 1.745682 0.026337 0.913390
v 1.427555 0.026337 0.899500
v 1.735024 0.427710 1.157500
v 1.427554 0.427710 0.899500
v 1.735024 0.026337 1.157500
v 1.747360 0.090415 0.733470
v 2.188490 0.420196 0.596192
v 1.817057 0.485691 0.733469
v 2.118800 0.024921 0.596192
v 1.761920 0.087848 0.564487
v 2.173940 0.422763 0.765174
v 1.831617 0.483123 0.564487
v 2.104240 0.027488 0.765174
v 1.984231 0.048649 0.470982
v 1.951624 0.461963 0.858679
v 2.053929 0.443924 0.470982
v 1.881926 0.066688 0.858679
v 3.033010 0.055686 0.988560
v 3.361800 0.457059 0.758342
v 3.033010 0.457059 0.988560
v 3.361800 0.055686 0.758342
v 3.033010 0.055686 0.758343
v 3.361800 0.457059 0.988560
v 3.033010 0.457059 0.758342
v 3.361800 0.055686 0.988560
v 2.263570 0.095266 3.152270
v 2.263570 0.496639 2.750890
v 2.263570 0.496639 3.152270
v 2.263570 0.095266 2.750890
v 2.074983 0.095266 3.020220
v 2.452150 0.496639 2.882940
v 2.074983 0.496639 3.020220
v 2.452150 0.095266 2.882940
v -1.848330 -0.028084 0.048079
v -1.605660 0.218327 0.090868
v -1.848330 0.218327 0.048079
v -1.605660 -0.028084 0.090868
v -1.775540 -0.028084 -0.038897
v -1.691260 0.218327 0.192653
v -1.775540 0.218327 -0.038897
v -1.691260 -0.028084 0.192653
v -1.476250 0.077842 -0.112271
v -1.287490 0.324253 -0.270661
v -1.476250 0.324253 -0.112271
v -1.287490 0.077842 -0.270661
v -1.504060 0.077842 -0.226201
v -1.272510 0.324253 -0.141923
v -1.504060 0.324253 -0.226201
v -1.272510 0.077842 -0.141923
v -1.473790 0.079173 -0.127339
v -1.452310 0.325584 -0.372813
v -1.473790 0.325584 -0.127339
v -1.452310 0.079173 -0.372813
v -1.581120 0.079173 -0.190603
v -1.357800 0.325584 -0.294741
v -1.581120 0.325584 -0.190603
v -1.357800 0.079173 -0.294741
v -0.906550 0.013639 1.119900
v -0.520670 0.405475 1.187950
v -0.906550 0.405475 1.119900
v -0.520670 0.013638 1.187950
v -0.787030 0.013638 0.977220
v -0.653010 0.405475 1.345430
v -0.787030 0.405475 0.977230
v -0.653010 0.013639 1.345430
v -0.594370 0.017052 1.160860
v -0.492960 0.408889 1.539350
v -0.594370 0.408889 1.160860
v -0.492960 0.017052 1.539350
v -0.411540 0.017052 1.218970
v -0.688610 0.408889 1.496040
v -0.411540 0.408889 1.218970
v -0.688610 0.017052 1.496040
v -1.857700 -0.000837 0.525116
v -1.748170 0.391000 0.800173
v -1.857700 0.391000 0.525115
v -1.748170 -0.000837 0.800173
v -1.687240 -0.000837 0.523464
v -1.931460 0.391000 0.816631
v -1.687240 0.391000 0.523464
v -1.931460 -0.000836 0.816631
v -1.499690 0.002577 0.719263
v -1.766290 0.394414 0.998380
v -1.499690 0.394414 0.719263
v -1.766290 0.002577 0.998380
v -1.466590 0.002577 0.871504
v -1.812220 0.394414 0.860951
v -1.466590 0.394414 0.871503
v -1.812220 0.002577 0.860951
v -1.285660 0.058448 -2.719370
v -1.251510 0.450285 -2.329020
v -1.285660 0.450285 -2.719370
v -1.251510 0.058448 -2.329020
v -1.114500 0.058448 -2.629170
v -1.435480 0.450285 -2.404420
v -1.114500 0.450285 -2.629170
v -1.435480 0.058448 -2.404420
v -0.928970 0.048742 -2.425980
v -1.268310 0.440579 -2.230060
v -0.928970 0.440579 -2.425980
v -1.268310 0.048742 -2.230060
v -0.935370 0.048742 -2.222650
v -1.274720 0.440579 -2.418570
v -0.935370 0.440579 -2.222650
v -1.274710 0.048742 -2.418570
v 1.868056 0.058447 1.348100
v 1.902207 0.450284 1.738440
v 1.868056 0.450284 1.348100
v 1.902207 0.058447 1.738440
v 2.039210 0.058447 1.438300
v 1.718235 0.450284 1.663050
v 2.039210 0.450284 1.438300
v 1.718236 0.058447 1.663050
v 2.071595 0.048741 1.649180
v 1.732255 0.440578 1.845100
v 2.071595 0.440578 1.649180
v 1.732255 0.048741 1.845100
v 2.065186 0.048741 1.852500
v 1.725845 0.440578 1.656580
v 2.065186 0.440578 1.852500
v 1.725846 0.048741 1.656580
v 1.474046 0.049250 2.787190
v 1.689709 0.330777 2.606220
v 1.474046 0.330777 2.787190
v 1.689709 0.049250 2.606220
v 1.443253 0.049250 2.672260
v 1.720502 0.330777 2.721150
v 1.443252 0.330777 2.672260
v 1.720503 0.049250 2.721150
v 1.569609 0.049250 2.556480
v 1.594146 0.330777 2.836930
v 1.569609 0.330777 2.556480
v 1.594146 0.049250 2.836930
v 1.803387 0.049250 1.883970
v 2.034001 0.330777 2.045440
v 1.803387 0.330777 1.883970
v 2.034001 0.049250 2.045440
v 1.906425 0.049250 1.824480
v 1.930962 0.330777 2.104930
v 1.906424 0.330777 1.824480
v 1.930961 0.049250 2.104930
v 2.050968 0.049250 1.916560
v 1.786419 0.330777 2.012850
v 2.050969 0.330777 1.916560
v 1.786419 0.049250 2.012850
v 2.099170 0.095266 2.836470
v 2.427960 0.496639 3.066690
v 2.099170 0.496639 2.836470
v 2.427960 0.095266 3.066690
v -0.579560 0.226628 -0.369482
v -0.545410 0.618465 0.020863
v -0.579560 0.618465 -0.369482
v -0.545410 0.226628 0.020863
v -0.272830 0.134296 -0.279280
v -0.593800 0.526132 -0.054531
v -0.272830 0.526133 -0.279280
v -0.593800 0.134296 -0.054531
v -0.020940 0.121102 -0.076089
v -0.360280 0.512939 0.119830
v -0.020940 0.512939 -0.076088
v -0.360280 0.121102 0.119830
v -0.027350 0.121102 0.127233
v -0.366690 0.512939 -0.068686
v -0.027350 0.512939 0.127233
v -0.366690 0.121103 -0.068685
v -0.695060 0.034621 2.305050
v -0.660910 0.426458 2.695390
v -0.695060 0.426458 2.305050
v -0.660910 0.034621 2.695390
v -0.338370 0.135088 2.598440
v -0.677710 0.526925 2.794360
v -0.338370 0.526925 2.598440
v -0.677710 0.135088 2.794360
v -0.344780 0.024915 2.801760
v -0.684120 0.416752 2.605840
v -0.344780 0.416752 2.801760
v -0.684120 0.024915 2.605840
v 1.040156 0.052028 -1.293530
v 1.228918 0.298440 -1.451920
v 1.040156 0.298439 -1.293530
v 1.228918 0.052029 -1.451920
v 1.012352 0.052029 -1.407460
v 1.243903 0.298439 -1.323180
v 1.012352 0.298439 -1.407460
v 1.243903 0.052028 -1.323180
v 1.042621 0.052028 -1.308600
v 1.064096 0.298440 -1.554070
v 1.042620 0.298439 -1.308600
v 1.064097 0.052029 -1.554070
v 0.935287 0.052029 -1.371860
v 1.158612 0.298440 -1.476000
v 0.935287 0.298439 -1.371860
v 1.158612 0.052029 -1.476000
v 0.904073 0.030769 -1.128720
v 0.861284 0.277179 -1.371390
v 0.904073 0.277179 -1.128720
v 0.861284 0.030769 -1.371390
v 0.781889 0.030769 -1.163450
v 0.970650 0.277179 -1.321840
v 0.781889 0.277179 -1.163450
v 0.970650 0.030769 -1.321840
v 0.902425 0.030769 -1.238000
v 0.700576 0.277179 -1.379330
v 0.902425 0.277179 -1.237990
v 0.700576 0.030769 -1.379330
v 0.784353 0.030769 -1.178520
v 0.805830 0.277179 -1.424000
v 0.784353 0.277179 -1.178520
v 0.805830 0.030769 -1.424000
v -1.997370 -0.007906 -1.387210
v -1.681920 0.340152 -1.240120
v -1.997370 0.340152 -1.387210
v -1.681920 -0.007906 -1.240120
v -1.669700 0.092561 -1.291520
v -1.669700 0.440620 -0.943458
v -1.669700 0.440620 -1.291520
v -1.669700 0.092561 -0.943458
v -1.525390 -0.017612 -1.197100
v -1.826820 0.330447 -1.023069
v -1.525390 0.330447 -1.197100
v -1.826820 -0.017612 -1.023068
v 1.217313 0.083977 2.301390
v 1.406074 0.330388 2.143000
v 1.217313 0.330388 2.301390
v 1.406074 0.083977 2.143000
v 1.189509 0.083977 2.187460
v 1.421059 0.330388 2.271740
v 1.189509 0.330388 2.187460
v 1.421059 0.083977 2.271740
v 1.219777 0.083977 2.286320
v 1.241253 0.330388 2.040850
v 1.219777 0.330388 2.286320
v 1.241253 0.083977 2.040850
v 1.112444 0.083977 2.223060
v 1.335768 0.330388 2.118920
v 1.112444 0.330388 2.223060
v 1.335768 0.083977 2.118920
v -0.103790 0.139997 0.312779
v 0.183588 0.515146 0.071638
v -0.103790 0.515146 0.312779
v 0.183588 0.139997 0.071638
v -0.142770 0.139997 0.135458
v 0.209751 0.515146 0.263766
v -0.142770 0.515146 0.135458
v 0.209751 0.139997 0.263766
v -0.057630 0.139997 0.320459
v -0.024930 0.515146 -0.053262
v -0.057630 0.515146 0.320459
v -0.024930 0.139997 -0.053262
v -0.217690 0.139997 0.220274
v 0.122311 0.515146 0.061730
v -0.217690 0.515146 0.220274
v 0.122310 0.139997 0.061730
v 1.816839 0.028311 -0.774869
v 1.529459 0.403459 -1.016010
v 1.816839 0.403459 -0.774869
v 1.529459 0.028311 -1.016010
v 1.634169 0.028311 -0.703312
v 1.699312 0.403459 -1.072761
v 1.634168 0.403459 -0.703311
v 1.699312 0.028311 -1.072761
v 1.778831 0.028311 -0.970398
v 1.405111 0.403459 -0.937702
v 1.778832 0.403459 -0.970398
v 1.405110 0.028311 -0.937702
v 1.693150 0.028311 -0.792995
v 1.477973 0.403459 -1.100299
v 1.693150 0.403459 -0.792995
v 1.477974 0.028311 -1.100298
v 1.499964 0.032854 2.598530
v 1.534114 0.424691 2.988880
v 1.499964 0.424691 2.598530
v 1.534114 0.032854 2.988880
v 1.671118 0.032854 2.688730
v 1.350143 0.424691 2.913480
v 1.671118 0.424691 2.688730
v 1.350144 0.032854 2.913480
v 1.850246 0.023148 3.095250
v 1.510905 0.414985 2.899330
v 1.850246 0.414985 3.095250
v 1.510905 0.023148 2.899330
v 1.734821 0.042043 3.103470
v 2.087340 0.417192 3.231780
v 1.734821 0.417192 3.103470
v 2.087340 0.042043 3.231780
v 1.819966 0.042043 3.288470
v 1.852662 0.417192 2.914750
v 1.819966 0.417192 3.288470
v 1.852662 0.042043 2.914750
v -0.007130 0.134296 -0.429552
v -0.007130 0.526132 -0.037714
v -0.007130 0.526133 -0.429552
v -0.007130 0.134296 -0.037715
v 0.252649 0.121102 -0.240031
v 0.218498 0.512939 0.150316
v 0.252649 0.512939 -0.240030
v 0.218498 0.121102 0.150316
v 0.406727 0.121102 -0.120253
v 0.051600 0.512939 0.045344
v 0.406727 0.512939 -0.120253
v 0.051600 0.121103 0.045345
v 0.482430 0.139997 0.312341
v 0.449734 0.515146 -0.061380
v 0.482430 0.515146 0.312341
v 0.449734 0.139997 -0.061380
v 0.306020 0.139997 0.240473
v 0.613324 0.515146 0.025296
v 0.306020 0.515146 0.240472
v 0.613324 0.139997 0.025296
v 0.528594 0.139997 0.187441
v 0.241213 0.515146 -0.053699
v 0.528594 0.515146 0.187441
v 0.241213 0.139997 -0.053699
v 0.345923 0.139997 0.258999
v 0.411067 0.515146 -0.110451
v 0.345923 0.515146 0.258998
v 0.411066 0.139997 -0.110450
v -2.566290 0.026828 -2.562520
v -2.544810 0.273239 -2.807990
v -2.566290 0.273239 -2.562520
v -2.544810 0.026828 -2.807990
v -2.673620 0.026828 -2.625780
v -2.450300 0.273239 -2.729920
v -2.673620 0.273239 -2.625780
v -2.450300 0.026828 -2.729920
v -2.873530 0.013181 -2.802790
v -2.838550 0.414554 -3.202640
v -2.873530 0.414554 -2.802790
v -2.838550 0.013181 -3.202640
v -3.020430 0.013181 -2.887610
v -2.691650 0.414554 -3.117830
v -3.020430 0.414554 -2.887610
v -2.691650 0.013181 -3.117830
v -3.009780 0.013181 -3.131720
v -2.702310 0.414554 -2.873720
v -3.009780 0.414554 -3.131720
v -2.702310 0.013181 -2.873720
v -3.294040 -0.006832 -2.783060
v -3.328189 0.385005 -2.392720
v -3.294040 0.385005 -2.783060
v -3.328189 -0.006832 -2.392720
v -3.139959 -0.006832 -2.663290
v -3.495090 0.385005 -2.497690
v -3.139959 0.385005 -2.663290
v -3.495080 -0.006832 -2.497690
v -3.064260 0.012063 -2.230690
v -3.096950 0.387212 -2.604410
v -3.064260 0.387212 -2.230690
v -3.096950 0.012063 -2.604410
v -3.240670 0.012063 -2.302560
v -2.933360 0.387212 -2.517739
v -3.240670 0.387212 -2.302560
v -2.933360 0.012063 -2.517739
v -3.018090 0.012063 -2.355590
v -3.305470 0.387212 -2.596730
v -3.018090 0.387212 -2.355590
v -3.305470 0.012063 -2.596730
v -3.200760 0.012063 -2.284030
v -3.135620 0.387212 -2.653480
v -3.200760 0.387212 -2.284030
v -3.135620 0.012063 -2.653480
v 3.044780 0.003343 -2.477130
v 3.320840 0.340347 -2.283840
v 3.044780 0.340347 -2.477130
v 3.320840 0.003343 -2.283840
v 3.191080 0.003343 -2.540940
v 3.161710 0.340347 -2.205220
v 3.191080 0.340347 -2.540940
v 3.161710 0.003343 -2.205220
v 3.088220 0.019703 -2.181460
v 3.330890 0.266114 -2.138669
v 3.088220 0.266114 -2.181460
v 3.330890 0.019703 -2.138669
v 3.161010 0.019703 -2.268440
v 3.245290 0.266114 -2.036890
v 3.161010 0.266114 -2.268440
v 3.245290 0.019703 -2.036890
v 3.575560 0.003343 -2.295239
v 3.299500 0.340347 -2.101950
v 3.575560 0.340347 -2.295239
v 3.299500 0.003343 -2.101950
v 3.583840 0.003343 -2.119980
v 3.278410 0.340347 -2.262400
v 3.583840 0.340347 -2.119980
v 3.278410 0.003343 -2.262400
v 3.525880 0.019703 -2.084880
v 3.402680 0.266114 -1.871480
v 3.525880 0.266114 -2.084880
v 3.402680 0.019703 -1.871480
v 3.581080 0.019703 -1.970770
v 3.334670 0.266114 -1.970770
v 3.581080 0.266114 -1.970770
v 3.334670 0.019703 -1.970770
vt 0.000000 0.000000
vt 1.000000 0.997486
vt 0.000000 0.997486
vt 1.000000 0.000000
vn 0.000000 0.000000 0.999969
vn 0.000000 0.000000 1.000000
vn -0.865993 0.000000 0.499985
vn -0.573565 0.000000 0.819147
vn -0.996185 0.000000 -0.087130
vn -0.173650 0.000000 0.984802
vn -0.939665 0.000000 0.341990
vn -0.173589 0.000000 0.984802
vn -0.939665 0.000000 0.342021
vn -0.173620 0.000000 0.984802
vn -0.173650 0.000031 0.984802
vn 0.642781 0.000000 0.766015
vn -0.342021 0.000000 0.939665
vn 0.996185 0.000000 0.087130
vn 0.422620 0.000000 0.906278
vn 0.642781 0.000000 0.766045
vn 0.996185 0.000000 0.087161
vn 0.422590 0.000000 0.906278
vn -0.341990 0.000000 0.939665
vn 0.422590 0.000000 0.906308
vn 0.573565 0.000000 0.819147
vn -0.642781 0.000000 0.766015
vn -0.642781 0.000000 0.766045
vn 0.336802 -0.059358 0.939665
vn -0.492386 0.086795 0.866024
vn -0.492386 0.086825 0.866024
vn -0.951231 0.167730 -0.258797
vn 1.000000 0.000000 0.000000
vn 0.999969 0.000000 0.000000
vn 0.342021 0.000000 0.939665
vn -0.965911 0.000000 0.258797
vn -0.707083 0.000000 -0.707083
vn -0.929044 0.000000 0.369945
vn -0.768303 0.000000 -0.640034
vn -0.723106 0.000000 -0.690695
vn 0.030488 0.000000 -0.999512
vn -0.996185 0.000000 0.087130
vn -0.573565 0.000000 -0.819147
vn -0.499985 0.000000 -0.865993
vn 0.499985 0.000000 -0.866024
vn 0.499985 0.000000 -0.865993
vn -0.573534 0.000000 0.819147
vn -0.996185 0.000000 0.087161
vn -0.342021 0.000000 -0.939665
vn -0.499985 0.000000 -0.866024
vn 0.984802 0.000000 -0.173620
vn 0.573565 0.000000 -0.819147
vn 0.573565 0.000031 -0.819117
vn 0.573534 0.000000 -0.819147
vn -0.422590 0.000000 0.906308
vn -1.000000 0.000000 0.000000
vn -0.999969 0.000000 0.000000
vn 0.642781 0.000000 -0.766015
vn 0.984802 0.000000 0.173620
vn -0.087130 0.000000 -0.996185
vn 0.819147 0.000000 -0.573565
vn -0.422590 0.000000 -0.906308
vn 0.996185 0.000000 -0.087130
vn 0.642781 0.000000 -0.766045
vn 0.573565 0.000000 0.819117
vn -0.422620 0.000000 -0.906278
vn -0.422590 0.000000 -0.906278
vn -0.573534 0.000000 -0.819147
vn 0.422590 0.000000 -0.906308
vn -0.866024 0.000000 -0.499954
vn 0.000000 0.000000 -1.000000
s 1
f 1/1/1 2/2/1 3/3/2
f 1/1/1 4/4/2 2/2/1
f 5/1/3 6/2/3 7/3/3
f 5/1/3 8/4/3 6/2/3
f 9/1/4 10/2/4 11/3/4
f 9/1/4 12/4/4 10/2/4
f 13/1/5 14/2/5 15/3/5
f 13/1/5 16/4/5 14/2/5
f 17/1/6 18/2/6 19/3/6
f 17/1/6 20/4/6 18/2/6
f 21/1/7 22/2/7 23/3/7
f 21/1/7 24/4/7 22/2/7
f 25/1/8 26/2/8 27/3/8
f 25/1/8 28/4/8 26/2/8
f 29/1/9 30/2/9 31/3/9
f 29/1/9 32/4/9 30/2/9
f 33/1/10 34/2/10 35/3/11
f 33/1/10 36/4/8 34/2/10
f 37/1/9 38/2/9 39/3/9
f 37/1/9 40/4/9 38/2/9
f 41/1/12 42/2/12 43/3/12
f 41/1/12 44/4/12 42/2/12
f 45/1/13 46/2/13 47/3/13
f 45/1/13 48/4/13 46/2/13
f 49/1/14 50/2/14 51/3/14
f 49/1/14 52/4/14 50/2/14
f 53/1/15 54/2/15 55/3/15
f 53/1/15 56/4/15 54/2/15
f 57/1/16 58/2/16 59/3/16
f 57/1/16 60/4/16 58/2/16
f 61/1/13 62/2/13 63/3/13
f 61/1/13 64/4/13 62/2/13
f 65/1/17 66/2/17 67/3/17
f 65/1/17 68/4/17 66/2/17
f 69/1/18 70/2/18 71/3/18
f 69/1/18 72/4/18 70/2/18
f 73/1/12 74/2/12 75/3/12
f 73/1/12 76/4/12 74/2/12
f 77/1/19 78/2/19 79/3/13
f 77/1/19 80/4/19 78/2/19
f 81/1/14 82/2/14 83/3/14
f 81/1/14 84/4/14 82/2/14
f 85/1/18 86/2/18 87/3/20
f 85/1/18 88/4/18 86/2/18
f 89/1/14 90/2/14 91/3/14
f 89/1/14 92/4/14 90/2/14
f 93/1/21 94/2/21 95/3/21
f 93/1/21 96/4/21 94/2/21
f 97/1/22 98/2/22 99/3/23
f 97/1/22 100/4/22 98/2/22
f 101/1/14 102/2/14 103/3/14
f 101/1/14 104/4/14 102/2/14
f 105/1/21 106/2/21 107/3/21
f 105/1/21 108/4/21 106/2/21
f 109/1/22 110/2/22 111/3/22
f 109/1/22 112/4/22 110/2/22
f 113/1/24 114/2/24 115/3/24
f 113/1/24 116/4/24 114/2/24
f 117/1/25 118/2/25 119/3/25
f 117/1/25 120/4/26 118/2/25
f 121/1/27 122/2/27 123/3/27
f 121/1/27 124/4/27 122/2/27
f 125/1/21 126/2/21 127/3/21
f 125/1/21 128/4/21 126/2/21
f 129/1/4 130/2/4 131/3/4
f 129/1/4 132/4/4 130/2/4
f 133/1/28 134/2/28 135/3/29
f 133/1/28 136/4/29 134/2/28
f 137/1/30 138/2/30 139/3/30
f 137/1/30 140/4/30 138/2/30
f 141/1/10 142/2/10 143/3/10
f 141/1/10 144/4/10 142/2/10
f 145/1/9 146/2/9 147/3/9
f 145/1/9 148/4/9 146/2/9
f 149/1/12 150/2/12 151/3/12
f 149/1/12 152/4/12 150/2/12
f 153/1/19 154/2/19 155/3/19
f 153/1/19 156/4/19 154/2/19
f 157/1/17 158/2/17 159/3/17
f 157/1/17 160/4/17 158/2/17
f 161/1/15 162/2/15 163/3/15
f 161/1/15 164/4/15 162/2/15
f 165/1/6 166/2/6 167/3/6
f 165/1/6 168/4/6 166/2/6
f 169/1/9 170/2/9 171/3/9
f 169/1/9 172/4/9 170/2/9
f 173/1/31 174/2/31 175/3/31
f 173/1/31 176/4/31 174/2/31
f 177/1/32 178/2/32 179/3/32
f 177/1/32 180/4/32 178/2/32
f 181/1/33 182/2/33 183/3/33
f 181/1/33 184/4/33 182/2/33
f 185/1/34 186/2/34 187/3/34
f 185/1/34 188/4/34 186/2/34
f 189/1/35 190/2/35 191/3/35
f 189/1/35 192/4/35 190/2/35
f 193/1/36 194/2/36 195/3/36
f 193/1/36 196/4/36 194/2/36
f 197/1/37 198/2/37 199/3/37
f 197/1/37 200/4/37 198/2/37
f 201/1/38 202/2/38 203/3/38
f 201/1/38 204/4/38 202/2/38
f 205/1/39 206/2/39 207/3/39
f 205/1/39 208/4/39 206/2/39
f 209/1/40 210/2/40 211/3/40
f 209/1/40 212/4/41 210/2/40
f 213/1/37 214/2/37 215/3/37
f 213/1/37 216/4/37 214/2/37
f 217/1/38 218/2/38 219/3/38
f 217/1/38 220/4/38 218/2/38
f 221/1/39 222/2/39 223/3/39
f 221/1/39 224/4/39 222/2/39
f 225/1/41 226/2/41 227/3/40
f 225/1/41 228/4/41 226/2/41
f 229/1/12 230/2/12 231/3/12
f 229/1/12 232/4/12 230/2/12
f 233/1/6 234/2/6 235/3/6
f 233/1/6 236/4/6 234/2/6
f 237/1/37 238/2/37 239/3/37
f 237/1/37 240/4/37 238/2/37
f 241/1/42 242/2/42 243/3/42
f 241/1/42 244/4/42 242/2/42
f 245/1/37 246/2/37 247/3/43
f 245/1/37 248/4/37 246/2/37
f 249/1/44 250/2/44 251/3/44
f 249/1/44 252/4/44 250/2/44
f 253/1/4 254/2/4 255/3/4
f 253/1/4 256/4/4 254/2/4
f 257/1/37 258/2/37 259/3/37
f 257/1/37 260/4/37 258/2/37
f 261/1/38 262/2/38 263/3/38
f 261/1/38 264/4/38 262/2/38
f 265/1/45 266/2/45 267/3/45
f 265/1/45 268/4/45 266/2/45
f 269/1/40 270/2/40 271/3/40
f 269/1/40 272/4/40 270/2/40
f 273/1/37 274/2/37 275/3/37
f 273/1/37 276/4/37 274/2/37
f 277/1/39 278/2/39 279/3/39
f 277/1/39 280/4/39 278/2/39
f 281/1/41 282/2/41 283/3/41
f 281/1/41 284/4/41 282/2/41
f 285/1/16 286/2/16 287/3/16
f 285/1/16 288/4/16 286/2/16
f 289/1/13 290/2/13 291/3/13
f 289/1/13 292/4/13 290/2/13
f 293/1/14 294/2/14 295/3/14
f 293/1/14 296/4/14 294/2/14
f 297/1/15 298/2/15 299/3/15
f 297/1/15 300/4/15 298/2/15
f 301/1/46 302/2/46 303/3/46
f 301/1/46 304/4/46 302/2/46
f 305/1/12 306/2/12 307/3/12
f 305/1/12 308/4/12 306/2/12
f 309/1/47 310/2/47 311/3/48
f 309/1/47 312/4/49 310/2/47
f 313/1/14 314/2/14 315/3/14
f 313/1/14 316/4/14 314/2/14
f 317/1/50 318/2/50 319/3/50
f 317/1/50 320/4/50 318/2/50
f 321/1/51 322/2/52 323/3/51
f 321/1/51 324/4/51 322/2/52
f 325/1/45 326/2/45 327/3/45
f 325/1/45 328/4/39 326/2/45
f 329/1/12 330/2/12 331/3/12
f 329/1/12 332/4/12 330/2/12
f 333/1/13 334/2/13 335/3/13
f 333/1/13 336/4/13 334/2/13
f 337/1/14 338/2/14 339/3/14
f 337/1/14 340/4/14 338/2/14
f 341/1/15 342/2/15 343/3/15
f 341/1/15 344/4/15 342/2/15
f 345/1/12 346/2/12 347/3/12
f 345/1/12 348/4/12 346/2/12
f 349/1/13 350/2/13 351/3/13
f 349/1/13 352/4/13 350/2/13
f 353/1/17 354/2/17 355/3/17
f 353/1/17 356/4/17 354/2/17
f 357/1/20 358/2/20 359/3/20
f 357/1/20 360/4/20 358/2/20
f 361/1/53 362/2/53 363/3/53
f 361/1/53 364/4/53 362/2/53
f 365/1/54 366/2/54 367/3/54
f 365/1/54 368/4/54 366/2/54
f 369/1/55 370/2/55 371/3/55
f 369/1/55 372/4/55 370/2/55
f 373/1/56 374/2/56 375/3/56
f 373/1/56 376/4/56 374/2/56
f 377/1/37 378/2/37 379/3/37
f 377/1/37 380/4/37 378/2/37
f 381/1/38 382/2/38 383/3/38
f 381/1/38 384/4/38 382/2/38
f 385/1/40 386/2/40 387/3/40
f 385/1/40 388/4/40 386/2/40
f 389/1/13 390/2/13 391/3/13
f 389/1/13 392/4/13 390/2/13
f 393/1/14 394/2/14 395/3/14
f 393/1/14 396/4/14 394/2/14
f 397/1/51 398/2/51 399/3/51
f 397/1/51 400/4/51 398/2/51
f 401/1/5 402/2/5 403/3/5
f 401/1/5 404/4/5 402/2/5
f 405/1/57 406/2/57 407/3/57
f 405/1/57 408/4/57 406/2/57
f 409/1/58 410/2/58 411/3/58
f 409/1/58 412/4/58 410/2/58
f 413/1/21 414/2/21 415/3/21
f 413/1/21 416/4/21 414/2/21
f 417/1/59 418/2/59 419/3/59
f 417/1/59 420/4/59 418/2/59
f 421/1/54 422/2/54 423/3/54
f 421/1/54 424/4/54 422/2/54
f 425/1/17 426/2/17 427/3/17
f 425/1/17 428/4/17 426/2/17
f 429/1/15 430/2/15 431/3/15
f 429/1/15 432/4/15 430/2/15
f 433/1/14 434/2/14 435/3/14
f 433/1/14 436/4/14 434/2/14
f 437/1/60 438/2/60 439/3/60
f 437/1/60 440/4/60 438/2/60
f 441/1/22 442/2/22 443/3/22
f 441/1/22 444/4/22 442/2/22
f 445/1/5 446/2/5 447/3/5
f 445/1/5 448/4/5 446/2/5
f 449/1/61 450/2/61 451/3/62
f 449/1/61 452/4/61 450/2/61
f 453/1/58 454/2/58 455/3/58
f 453/1/58 456/4/58 454/2/58
f 457/1/21 458/2/21 459/3/21
f 457/1/21 460/4/21 458/2/21
f 461/1/53 462/2/53 463/3/53
f 461/1/53 464/4/53 462/2/53
f 465/1/54 466/2/54 467/3/54
f 465/1/54 468/4/54 466/2/54
f 469/1/42 470/2/42 471/3/42
f 469/1/42 472/4/42 470/2/42
f 473/1/5 474/2/5 475/3/5
f 473/1/5 476/4/5 474/2/5
f 477/1/6 478/2/6 479/3/6
f 477/1/6 480/4/6 478/2/6
f 481/1/9 482/2/9 483/3/9
f 481/1/9 484/4/9 482/2/9
f 485/1/63 486/2/63 487/3/63
f 485/1/63 488/4/63 486/2/63
f 489/1/64 490/2/64 491/3/64
f 489/1/64 492/4/64 490/2/64
f 493/1/65 494/2/65 495/3/65
f 493/1/65 496/4/65 494/2/65
f 497/1/66 498/2/66 499/3/66
f 497/1/66 500/4/66 498/2/66
