# Blender v2.66 (sub 0) OBJ File: ''
# www.blender.org
o Cone
v -1.000000 -1.000000 -0.000000
v 0.000000 0.000000 0.000000
v -0.707107 -1.000000 -0.707107
v 0.000000 -1.000000 -1.000000
v 0.707107 -1.000000 -0.707107
v 1.000000 -1.000000 -0.000000
v -0.707107 -1.000000 0.707107
v 0.000000 -1.000000 1.000000
v 0.707107 -1.000000 0.707107
vn -0.678598 0.678598 -0.281084
vn 0.281084 0.678599 -0.678598
vn -0.281084 0.678599 -0.678598
vn 0.678598 0.678598 -0.281084
vn -0.678598 0.678598 0.281085
vn -0.281084 0.678598 0.678598
vn 0.281084 0.678598 0.678598
vn 0.678598 0.678598 0.281085
vn 0.000000 -1.000000 -0.000000
s off
f 1//1 2//1 3//1
f 4//2 2//2 5//2
f 3//3 2//3 4//3
f 5//4 2//4 6//4
f 2//5 1//5 7//5
f 8//6 2//6 7//6
f 9//7 2//7 8//7
f 6//8 2//8 9//8
f 4//9 5//9 3//9
f 5//9 6//9 3//9
f 6//9 9//9 3//9
f 9//9 8//9 3//9
f 7//9 1//9 8//9
f 8//9 1//9 3//9
